# xmcd
#
# Track frame offsets:
#	150
#	12891
#	33517
#	50840
#	67483
#	78398
#	92868
#	107357
#	123972
#	137161
#	148318
#
# Disc length: 2187 seconds
#
# Revision: 0
# Processed by: cddbd v1.5.1PL0 Copyright (c) Steve Scherf et al.
# Submitted via: dBpowerAMP V4.0
#
DISCID=a108890b
DTITLE=Various Artist - Under the "X" In Texas
DYEAR=1995
DGENRE=Country Swing
TTITLE0=Under the "X" in Texas - Johnny Gimble and Texas Swing
TTITLE1=Faded Love - Johnny Gimble
TTITLE2=Hill Country Sunset - Johnny Gimble
TTITLE3=Bull Whip - Johnny Gimble
TTITLE4=Somewhere South of S.A. - Johnny Gimble
TTITLE5=All Night Long - Johnny Gimble
TTITLE6=You're WHy - Johnny Gimble
TTITLE7=One More Pretty Waltz - Johnny Gimble
TTITLE8=Cowboy Just the Same - Johnny Gimble
TTITLE9=Texas Highways - Johnny Gimble
TTITLE10=Orange Blossom Special - Johnny Gimble
EXTD=
EXTT0=
EXTT1=
EXTT2=
EXTT3=
EXTT4=
EXTT5=
EXTT6=
EXTT7=
EXTT8=
EXTT9=
EXTT10=
PLAYORDER=
